<svg xmlns="http://www.w3.org/2000/svg" version="1.1" xmlns:xlink="http://www.w3.org/1999/xlink" xmlns:svgjs="http://svgjs.com/svgjs" width="512" height="512" x="0" y="0" viewBox="0 0 68 68" style="enable-background:new 0 0 512 512" xml:space="preserve" class=""><g transform="matrix(0.8800000000000011,0,0,0.8800000000000011,4.085819149017304,4.083535652160599)"><path d="M62.5 5.2c-5.3-.4-13.7 8.4-12 18.5.1.5.2 1.1.1 1.4-.1.2-.3.4-.4.3s-.2-.4-.3-.6c-1.7-5.1-6.5-10.9-11.4-11.9-2.1-.4-4.2.1-5.5 1.4-1 1-1.7 3-1.5 4.8-3.4-1.4-7.1 1-7.2 4.6-1.4-.4-3.1-.2-4.3.7-2.9-5-5.7-7.1-9.3-13.7-1.4-2.2-3.6-4.4-5.8-3.6-2.9 1.1-3.7 5.5-3 8.4.9 4 3.4 7.4 5.4 10.9C10.5 32 12.4 38.1 15 44c2.5 5.9 5.8 11.7 10.8 15.6 2.9 2.2 6.4 3.8 10 3.8.8 0 1.8-.3 1.7-1.1.4-.5.1-1.3-.6-1.2-3.6.2-7.3-1.4-9.8-4.1l-1-1.1c-2.5-2.8-5.1-5.7-7-9-1.8-3.1-3.1-6.7-4.3-10.1-1.2-3.5-2.5-7.1-4.4-10.4-2.5-4.3-6.2-8.1-7-12.9-.5-4.2 2.6-7.8 5.9-2 3.6 6.4 6.9 9.4 9.6 14.1-.5.9-.7 2.2-.4 3.4.9 3.3 9.3 12.4 11.6 14.9 1 1.1 2.1 2.2 3.5 3s3 1.1 4.4.5c1.8-.7 2.8-3 2.2-4.8.2-.1.3-.1.4-.2 1.4 0 2.7-1.3 2.6-2.7 1.1-.3 2-1.1 2.5-2.2 2.4-3.8-2.4-15-3.9-18.7-.4-.9-1.8-.4-1.4.6 1.8 4.3 3.5 8.5 4.2 13.1-1.4-.7-2.8-.1-3.5 1-1.6-3.1-3.3-6.2-5-9.2-.8-1.3-1.7-2.8-2.8-3.8 0-.1 0-.2-.1-.3-.7-1.1-.3-3.6.7-4.6 1-.9 2.6-1.3 4.2-1 4.3.8 8.7 6.2 10.3 10.9.2.4.4 1.1 1 1.5 1 .5 2.1-.2 2.5-1.2.3-.7.1-1.4 0-2.2C50.3 13.5 59.4 5 63.5 7c-1.6 1.7-4.2 3.5-4.1 6.4 0 1.5 1.1 3 2.7 3.3-2.2 9.9 1.3 21.5-3.8 32.7-2.8 6.1-8.2 10.4-13.7 10.9-.5 0-.8.5-.6 1-.1.3.1.6.7.8.5.2 1.1.2 1.7.2 3.7-.2 7.3-.8 10.8-1.8.5-.1 1.1-.4 1.1-.9.1-.4-.3-.9-.7-1-.6-.2-.6-.1-6.4 1 3.5-2 6.5-5.4 8.5-9.6 6-13.1.4-27.7 5.6-37.8.6-1.2 1.3-2.3 1.1-3.6-.3-2-2.2-3.3-3.9-3.4zM28.3 28.8c2.1 3.1 5.5 7.7 8 10.4-1-.1-1.9.2-2.7 1.5-.7 1.2-.9 2.3-.2 3.5-2.6-1.7-4.9-5-10.3-11-1.6-1.8-4.3-5.2-2.7-7.1 1.4-1.7 5.1-1.4 7.9 2.7zM38.8 38c.6-.6 1.8-.3 2.2.8 0 .1.1.1.1.2-.1.8-.5 1.6-1.2 2.1-.3-.6-.8-1.2-1.2-1.7-.2-.4-.2-1.2.1-1.4zm-.3 4 .2.2v.5c-.1 1.4-.9 2.2-2.1 2.3-.2-.5-.9-.5-1.6-1.3s-.6-1.4-.1-2.2c.6-.9 1.2-1.2 2.1-.5.5.3 1.1.6 1.5 1zm4-7.8c.2-.4.7-.6 1.1-.5.5.1 1.1.5 1.2.9 0 .1.1.2.1.2 0 .6-.1 1.1-.3 1.7-.3.7-1.1 1.3-1.8 1.1h-.2c-.1-.6-.2-1.2-.4-1.8 0-.6.1-1.3.3-1.6zM34.9 25c1.3 2.3 5 8.6 5.9 11.1 0 .2.1.3.1.5-1.4-.7-3.2-.2-3.7 1.3-7.6-8.8-7.5-11.4-11.5-13.5-.3-2.6 2-4.6 4.5-4.1 2.1.5 3.4 2.6 4.7 4.7zm27.6-9.8c-.8-.1-1.5-1-1.5-1.9-.1-2.1 2.2-3.7 3.7-5.3.9 1.6-1 2.7-2.2 7.2z" fill="#000000" data-original="#000000" class=""></path><path d="M35.8 6.4c-.4 0-.7.4-.7.8l.5 3.9c.1 1 1.6.8 1.5-.2L36.6 7c0-.3-.4-.6-.8-.6zM40.9 5.1c-.7 1.5-1.1 3.1-1.4 4.8-.1.4.3.9.7.9 1.2 0 .4-1.3 2-5 .5-1-.9-1.6-1.3-.7zM48.2 5.5l-5 5.9c-.6.8.5 1.7 1.1 1l5-5.9c.3-.3.2-.8-.1-1.1-.3-.2-.7-.2-1 .1z" fill="#000000" data-original="#000000" class=""></path></g></svg>