<svg xmlns="http://www.w3.org/2000/svg" version="1.1" xmlns:xlink="http://www.w3.org/1999/xlink" xmlns:svgjs="http://svgjs.com/svgjs" width="512" height="512" x="0" y="0" viewBox="0 0 467.932 467.932" style="enable-background:new 0 0 512 512" xml:space="preserve" class=""><g transform="matrix(0.6800000000000003,0,0,0.6800000000000003,74.86912109375004,74.86912048339829)"><path d="m0 369.325 155.977 90.055 311.955-180.108-.001-180.667L311.953 8.552 0 189.219z" style="" fill="#2db357" data-original="#2db357" class=""></path><path d="m0 189.219 155.977 90.053L467.931 98.605l.001 180.667L155.977 459.38 0 369.325z" style="" fill="#0e834c" data-original="#0e834c" class=""></path><path d="M155.977 459.38V279.272L467.931 98.605l.001 180.667z" style="" fill="#1a4541" data-original="#1a4541" class=""></path><path d="M311.953 29.17 38.994 185.864l118.412 67.562L430.365 96.735 311.953 29.17zM157.385 238.144l-91.689-52.316L311.975 44.453l91.688 52.316-246.278 141.375z" style="" fill="#ffffff" data-original="#ffffff" class=""></path><ellipse cx="238.466" cy="137.506" rx="51.16" ry="29.05" style="" fill="#ffffff" data-original="#ffffff" class=""></ellipse><ellipse cx="317.636" cy="94.486" rx="22.11" ry="12.553" style="" fill="#5ee1eb" data-original="#5ee1eb"></ellipse><ellipse cx="155.976" cy="186.766" rx="22.11" ry="12.555" style="" fill="#5ee1eb" data-original="#5ee1eb"></ellipse><path d="M0 212.366v4.404l155.966 92.366.011-4.4zM0 236.551v4.405l155.966 92.365.011-4.399zM0 260.737v4.405l155.966 92.367.011-4.4zM0 284.923v4.405l155.966 92.366.011-4.398zM0 309.11v4.405l155.966 92.366.011-4.4zM0 333.296v4.405l155.966 92.365.011-4.399z" style="" fill="#2db357" data-original="#2db357" class=""></path><path d="m467.931 123.763-311.944 180.98-.01 4.388 311.954-180.989zM467.931 147.948 155.987 328.929l-.01 4.387 311.954-180.989zM467.931 172.134 155.987 353.116l-.01 4.388 311.954-180.991zM467.932 196.319 155.987 377.302l-.01 4.387 311.955-180.99zM155.987 401.488l-.01 4.387 311.955-180.988v-4.382zM155.987 425.674l-.01 4.386 311.955-180.988v-4.382z" style="" fill="#0e834c" data-original="#0e834c" class=""></path></g></svg>