<svg xmlns="http://www.w3.org/2000/svg" version="1.1" xmlns:xlink="http://www.w3.org/1999/xlink" xmlns:svgjs="http://svgjs.com/svgjs" width="512" height="512" x="0" y="0" viewBox="0 0 682.667 682.667" style="enable-background:new 0 0 512 512" xml:space="preserve"><g transform="matrix(0.8800000000000006,0,0,0.8800000000000006,40.95987522125222,40.96014541625942)"><defs><clipPath id="a" clipPathUnits="userSpaceOnUse"><path d="M0 512h512V0H0Z" fill="#000000" data-original="#000000"></path></clipPath></defs><g clip-path="url(#a)" transform="matrix(1.33333 0 0 -1.33333 0 682.667)"><path d="m0 0-32.707 56.65c-1.834 3.177-.753 7.247 2.423 9.083 11.879 6.868 27.076 2.8 33.936-9.082l5.287-9.158v86.631c0 8.694 7.049 15.743 15.745 15.743 8.695 0 15.744-7.049 15.744-15.743v10.17c0 8.537 6.638 15.808 15.169 16.111 8.957.319 16.319-6.848 16.319-15.734v-10.547c0 8.694 7.048 15.743 15.744 15.743 8.695 0 15.744-7.049 15.744-15.743v-21.035c0 8.695 7.049 15.744 15.744 15.744s15.744-7.049 15.744-15.744V1.351c0-14.551-4.935-27.949-13.223-38.613-5.15-6.626-7.889-14.806-7.89-23.198l-.003-45.856a3.586 3.586 0 0 0-3.585-3.585h-76.55a3.586 3.586 0 0 0-3.586 3.585l-.003 45.865c-.001 8.345-2.675 16.511-7.809 23.089a63.125 63.125 0 0 0-4.198 6.082" style="stroke-width:15;stroke-linecap:round;stroke-linejoin:round;stroke-miterlimit:10;stroke-dasharray:none;stroke-opacity:1" transform="translate(215.989 141.004)" fill="none" stroke="#000000" stroke-width="15" stroke-linecap="round" stroke-linejoin="round" stroke-miterlimit="10" stroke-dasharray="none" stroke-opacity="" data-original="#000000"></path><path d="M0 0v49.54" style="stroke-width:15;stroke-linecap:round;stroke-linejoin:round;stroke-miterlimit:10;stroke-dasharray:none;stroke-opacity:1" transform="translate(319.393 204.553)" fill="none" stroke="#000000" stroke-width="15" stroke-linecap="round" stroke-linejoin="round" stroke-miterlimit="10" stroke-dasharray="none" stroke-opacity="" data-original="#000000"></path><path d="M0 0v70.574" style="stroke-width:15;stroke-linecap:round;stroke-linejoin:round;stroke-miterlimit:10;stroke-dasharray:none;stroke-opacity:1" transform="translate(287.904 204.553)" fill="none" stroke="#000000" stroke-width="15" stroke-linecap="round" stroke-linejoin="round" stroke-miterlimit="10" stroke-dasharray="none" stroke-opacity="" data-original="#000000"></path><path d="M0 0v70.574" style="stroke-width:15;stroke-linecap:round;stroke-linejoin:round;stroke-miterlimit:10;stroke-dasharray:none;stroke-opacity:1" transform="translate(256.416 204.553)" fill="none" stroke="#000000" stroke-width="15" stroke-linecap="round" stroke-linejoin="round" stroke-miterlimit="10" stroke-dasharray="none" stroke-opacity="" data-original="#000000"></path><path d="m0 0-42.902-24.77" style="stroke-width:15;stroke-linecap:round;stroke-linejoin:round;stroke-miterlimit:10;stroke-dasharray:none;stroke-opacity:1" transform="translate(318.925 386.501)" fill="none" stroke="#000000" stroke-width="15" stroke-linecap="round" stroke-linejoin="round" stroke-miterlimit="10" stroke-dasharray="none" stroke-opacity="" data-original="#000000"></path><path d="m0 0-61.119-35.287" style="stroke-width:15;stroke-linecap:round;stroke-linejoin:round;stroke-miterlimit:10;stroke-dasharray:none;stroke-opacity:1" transform="translate(334.669 359.231)" fill="none" stroke="#000000" stroke-width="15" stroke-linecap="round" stroke-linejoin="round" stroke-miterlimit="10" stroke-dasharray="none" stroke-opacity="" data-original="#000000"></path><path d="m0 0-61.119-35.287" style="stroke-width:15;stroke-linecap:round;stroke-linejoin:round;stroke-miterlimit:10;stroke-dasharray:none;stroke-opacity:1" transform="translate(350.413 331.962)" fill="none" stroke="#000000" stroke-width="15" stroke-linecap="round" stroke-linejoin="round" stroke-miterlimit="10" stroke-dasharray="none" stroke-opacity="" data-original="#000000"></path><path d="m0 0 42.902-24.77" style="stroke-width:15;stroke-linecap:round;stroke-linejoin:round;stroke-miterlimit:10;stroke-dasharray:none;stroke-opacity:1" transform="translate(161.587 295.122)" fill="none" stroke="#000000" stroke-width="15" stroke-linecap="round" stroke-linejoin="round" stroke-miterlimit="10" stroke-dasharray="none" stroke-opacity="" data-original="#000000"></path><path d="m0 0 56.941-32.875" style="stroke-width:15;stroke-linecap:round;stroke-linejoin:round;stroke-miterlimit:10;stroke-dasharray:none;stroke-opacity:1" transform="translate(177.332 322.392)" fill="none" stroke="#000000" stroke-width="15" stroke-linecap="round" stroke-linejoin="round" stroke-miterlimit="10" stroke-dasharray="none" stroke-opacity="" data-original="#000000"></path><path d="m0 0 61.119-35.287" style="stroke-width:15;stroke-linecap:round;stroke-linejoin:round;stroke-miterlimit:10;stroke-dasharray:none;stroke-opacity:1" transform="translate(193.075 349.661)" fill="none" stroke="#000000" stroke-width="15" stroke-linecap="round" stroke-linejoin="round" stroke-miterlimit="10" stroke-dasharray="none" stroke-opacity="" data-original="#000000"></path><path d="m0 0 5.259 9.109a62.985 62.985 0 0 1 4.809 9.494c3.131 7.735 8.866 14.134 16.091 18.307l39.72 22.935a3.585 3.585 0 0 1 1.311 4.899l-38.274 66.294a3.586 3.586 0 0 1-4.898 1.312l-39.713-22.926c-7.269-4.195-15.723-5.912-24.036-4.765a62.705 62.705 0 0 1-40.051-7.856l-96.768-55.868c-7.53-4.348-10.11-13.977-5.762-21.507 4.347-7.531 13.976-10.111 21.506-5.763l-18.216-10.518c-7.531-4.347-10.111-13.976-5.763-21.506v0c4.348-7.531 13.976-10.11 21.507-5.763l-9.135-5.274c-7.695-4.443-10.221-14.401-5.467-21.999.288-.46.598-.9.925-1.319" style="stroke-width:15;stroke-linecap:round;stroke-linejoin:round;stroke-miterlimit:10;stroke-dasharray:none;stroke-opacity:1" transform="translate(436.828 348.066)" fill="none" stroke="#000000" stroke-width="15" stroke-linecap="round" stroke-linejoin="round" stroke-miterlimit="10" stroke-dasharray="none" stroke-opacity="" data-original="#000000"></path><path d="m0 0 60.86 35.138-5.288-9.159c-6.859-11.881-2.784-27.076 9.104-33.93 3.178-1.832 7.242-.734 9.077 2.443l26.075 45.164" style="stroke-width:15;stroke-linecap:round;stroke-linejoin:round;stroke-miterlimit:10;stroke-dasharray:none;stroke-opacity:1" transform="translate(319.202 277.583)" fill="none" stroke="#000000" stroke-width="15" stroke-linecap="round" stroke-linejoin="round" stroke-miterlimit="10" stroke-dasharray="none" stroke-opacity="" data-original="#000000"></path><path d="M0 0h-13.503A63.123 63.123 0 0 1-24.13-.582c-8.264-1.157-16.673.61-23.9 4.781L-87.752 27.13a3.586 3.586 0 0 1-4.898-1.313l-38.275-66.294a3.586 3.586 0 0 1 1.313-4.898l39.711-22.93c7.267-4.196 12.982-10.66 16.145-18.433 5.091-12.509 14.227-23.482 26.828-30.757l96.768-55.869c7.53-4.347 17.159-1.767 21.507 5.763 4.347 7.53 1.767 17.159-5.763 21.507L83.8-156.612a15.935 15.935 0 0 1 2.222-1.062" style="stroke-width:15;stroke-linecap:round;stroke-linejoin:round;stroke-miterlimit:10;stroke-dasharray:none;stroke-opacity:1" transform="translate(138.906 416.447)" fill="none" stroke="#000000" stroke-width="15" stroke-linecap="round" stroke-linejoin="round" stroke-miterlimit="10" stroke-dasharray="none" stroke-opacity="" data-original="#000000"></path><path d="m0 0-60.86 35.138h10.575c13.72 0 24.841 11.127 24.833 24.848-.002 3.669-2.986 6.64-6.654 6.64h-49.763" style="stroke-width:15;stroke-linecap:round;stroke-linejoin:round;stroke-miterlimit:10;stroke-dasharray:none;stroke-opacity:1" transform="translate(255.774 349.82)" fill="none" stroke="#000000" stroke-width="15" stroke-linecap="round" stroke-linejoin="round" stroke-miterlimit="10" stroke-dasharray="none" stroke-opacity="" data-original="#000000"></path></g></g></svg>